<?xml version="1.0" encoding="iso-8859-1"?>
<!-- Generator: Adobe Illustrator 19.0.0, SVG Export Plug-In . SVG Version: 6.00 Build 0)  -->
<svg version="1.1" id="Capa_1" xmlns="http://www.w3.org/2000/svg" xmlns:xlink="http://www.w3.org/1999/xlink" x="0px" y="0px"
	 viewBox="0 0 496 496" style="enable-background:new 0 0 496 496;" xml:space="preserve">
<g>
	<rect x="160" y="8" style="fill:#FFCB57;" width="176" height="112"/>
	<rect x="160" y="376" style="fill:#FFCB57;" width="176" height="112"/>
</g>
<g>
	<path style="fill:#3F3A34;" d="M376,272h-16v72c0,13.232-10.768,24-24,24H160c-13.232,0-24-10.768-24-24v-56h-16v56
		c0,22.056,17.944,40,40,40h176c19.312,0,35.472-13.768,39.192-32H408v-64h-32V272z M392,304v32h-16v-32H392z"/>
	<polygon style="fill:#3F3A34;" points="328,480 312,480 312,400 296,400 296,480 168,480 168,400 152,400 152,496 296,496 312,496 
		344,496 344,400 328,400 	"/>
	<path style="fill:#3F3A34;" d="M375.192,144C372,128.352,359.648,116,344,112.808V0H152v112.808c-18.232,3.72-32,19.872-32,39.192
		v88h16v-88c0-13.232,10.768-24,24-24h176c13.232,0,24,10.768,24,24v72h16v-16h32v-64H375.192z M296,16v80h16V16h16v96H168V16H296z
		 M392,192h-16v-32h16V192z"/>
</g>
<path style="fill:#E56565;" d="M247.976,339.288L180.688,272H0v-16h187.312l60.712,60.712c12.208-12.112,41.4-41.064,59.352-59.08
	c0.168-0.168,0.44-0.44,0.2-1.016C307.32,256,306.848,256,306.632,256H292l-20.328-27.104l-39.136,46.96L196.688,240h-23.104
	c-11.864,0-21.544-9.384-21.584-20.928c0-17.896,7.872-34.512,21.608-45.76c13.736-11.24,31.744-15.632,49.456-12.088
	c8.88,1.784,17.376,5.872,24.888,11.944c19.184-15.68,45.8-17.696,67.976-4.624c7.496,4.408,13.92,10.664,18.584,18.104
	c8.128,12.936,11.168,28.048,8.568,42.56c-0.488,2.72,0.24,5.48,1.992,7.568c1.744,2.08,4.2,3.224,6.928,3.224h144v16H352
	c-7.44,0-14.432-3.264-19.192-8.952c-4.8-5.736-6.792-13.264-5.472-20.656c1.92-10.736-0.28-21.536-6.368-31.232
	c-3.312-5.28-7.856-9.712-13.152-12.824c-17.632-10.376-38.96-7.872-53.08,6.24l-6.704,6.728l-5.672-5.616
	c-6.92-6.92-14.52-11.176-22.464-12.776c-12.968-2.616-26.152,0.592-36.168,8.784C173.744,193.888,168,206,168,218.912
	c0.008,2.808,2.568,5.088,5.584,5.088h29.728l28.152,28.152l40.864-49.04L300,240h6.632c6.904,0,13.072,4.112,15.72,10.48
	c2.632,6.336,1.2,13.584-3.64,18.448c-23.184,23.264-65.08,64.76-65.08,64.76L247.976,339.288z"/>
<g>
</g>
<g>
</g>
<g>
</g>
<g>
</g>
<g>
</g>
<g>
</g>
<g>
</g>
<g>
</g>
<g>
</g>
<g>
</g>
<g>
</g>
<g>
</g>
<g>
</g>
<g>
</g>
<g>
</g>
</svg>
